<!--?xml version="1.0" encoding="utf-8"?-->
<!-- Generator: Adobe Illustrator 18.0.0, SVG Export Plug-In . SVG Version: 6.00 Build 0)  -->

<svg version="1.1" id="_x32_" xmlns="http://www.w3.org/2000/svg" xmlns:xlink="http://www.w3.org/1999/xlink" x="0px" y="0px" viewBox="0 0 512 512" style="width: 256px; height: 256px; opacity: 1;" xml:space="preserve">
<style type="text/css">
	.st0{fill:#4B4B4B;}
</style>
<g>
	<path class="st0" d="M446.934,139.344l-39.42-0.203c34.795-21.305,50.322-62.586,34.877-96.516C430.553,16.617,402.781,0,373.344,0
		c-12.482,0-25.264,2.988-37.26,9.516c-26.418,14.371-46.818,34.531-62.442,55.027c-0.275,0.36-0.553,0.711-0.826,1.07
		c-2.394,3.176-4.66,6.34-6.824,9.512c-0.877,1.269-1.762,2.519-2.625,3.816c-0.934,1.418-1.789,2.808-2.676,4.215
		c-1.594,2.484-3.213,4.914-4.756,7.488c-16.596-28.281-42.283-60.602-80.02-81.129C163.92,2.988,151.139,0,138.656,0
		c-29.437,0-57.207,16.617-69.045,42.625c-12.865,28.258-4.199,61.59,19.143,84.262c4.656,4.598,9.873,8.808,15.684,12.457h-86.26
		v106.774c0,2.152,1.744,3.894,3.894,3.894h204.229V140.058h59.398v109.953h204.23c2.15,0,3.892-1.742,3.892-3.894V139.344H446.934z
		 M197.674,112.465c-23.869,0-45.072-4.14-63.018-12.308c-9.082-4.133-16.35-11.203-19.941-19.395
		c-1.629-3.715-3.889-10.984-0.725-17.937c3.709-8.149,14.084-14.063,24.67-14.063c4.887,0,9.58,1.207,13.953,3.586
		c23.188,12.613,40.676,31.809,53.43,50.574c1.953,2.934,3.867,5.945,5.73,9.07C207.225,112.289,202.512,112.465,197.674,112.465z
		 M397.285,80.762c-3.592,8.192-10.86,15.262-19.942,19.395c-17.945,8.168-39.148,12.308-63.018,12.308
		c-4.277,0-8.412-0.18-12.467-0.418c-0.564-0.062-1.131-0.082-1.695-0.16c13.062-21.422,32.324-44.906,59.223-59.539
		c4.373-2.379,9.07-3.586,13.957-3.586c10.584,0,20.957,5.914,24.666,14.063C401.176,69.777,398.914,77.047,397.285,80.762z" style="fill: rgb(255, 255, 255);"></path>
	<path class="st0" d="M76.16,455.27c0,31.332,25.4,56.73,56.73,56.73h93.41V280.062H76.16V455.27z" style="fill: rgb(255, 255, 255);"></path>
	<path class="st0" d="M285.699,512h93.412c31.33,0,56.728-25.398,56.728-56.73V280.062h-150.14V512z" style="fill: rgb(255, 255, 255);"></path>
</g>
</svg>
